<?xml version="1.0" standalone="no"?>
<!DOCTYPE svg PUBLIC "-//W3C//DTD SVG 20010904//EN"
 "http://www.w3.org/TR/2001/REC-SVG-20010904/DTD/svg10.dtd">
<svg version="1.0" xmlns="http://www.w3.org/2000/svg"
 width="300.000000pt" height="300.000000pt" viewBox="0 0 300.000000 300.000000"
 preserveAspectRatio="xMidYMid meet">
<metadata>
Created by potrace 1.10, written by Peter Selinger 2001-2011
</metadata>
<g transform="translate(0.000000,300.000000) scale(0.100000,-0.100000)"
fill="#000000" stroke="none">
<path d="M2140 2745 c-22 -26 -6 -48 80 -108 47 -33 139 -114 204 -181 67 -68
112 -108 104 -91 -20 38 -142 172 -191 210 -38 30 -126 94 -159 117 -24 17
-23 38 2 38 44 0 171 -99 307 -240 51 -52 93 -91 93 -86 0 32 -140 179 -256
267 -115 88 -158 105 -184 74z"/>
<path d="M350 2588 c-5 -13 -21 -102 -34 -198 -19 -138 -31 -189 -54 -240 -53
-115 -113 -342 -112 -419 1 -37 21 20 40 116 21 109 65 245 100 313 13 25 25
65 26 90 3 69 46 313 57 328 7 9 13 9 22 2 9 -8 12 -31 9 -78 -6 -83 11 -67
21 20 8 66 -3 88 -41 88 -16 0 -28 -8 -34 -22z"/>
<path d="M2580 2595 c-8 -10 -10 -33 -5 -75 9 -77 27 -91 25 -19 -2 76 -2 79
14 79 20 0 24 -9 31 -66 3 -27 8 -58 10 -70 3 -12 7 -39 10 -60 6 -39 10 -56
21 -95 4 -14 2 -19 -5 -15 -16 10 -3 -50 21 -98 39 -78 86 -223 103 -321 21
-121 22 -125 33 -125 33 0 -46 319 -110 444 -13 25 -28 100 -44 215 -13 97
-29 186 -34 199 -11 26 -51 30 -70 7z"/>
<path d="M515 2528 c-59 -61 -100 -118 -87 -118 5 0 34 26 63 58 75 79 84 85
98 69 8 -11 -3 -30 -54 -88 -35 -41 -65 -82 -65 -92 0 -14 6 -11 27 15 15 18
51 59 80 90 29 31 53 61 53 67 0 15 -37 51 -52 51 -6 0 -35 -24 -63 -52z"/>
<path d="M560 2368 c-79 -37 -65 -49 16 -15 59 25 84 26 84 1 0 -13 -247 -141
-264 -136 -46 14 -159 -288 -173 -462 -8 -97 11 -99 21 -2 10 96 48 238 92
341 l39 89 143 66 c166 78 181 88 164 125 -15 33 -41 32 -122 -7z"/>
<path d="M2318 2375 c-17 -37 -2 -47 164 -125 l143 -66 38 -89 c47 -108 84
-242 93 -336 8 -81 24 -102 24 -32 0 160 -124 505 -176 491 -5 -1 -67 26 -137
60 -98 48 -128 67 -125 80 4 21 34 18 101 -10 74 -32 69 -12 -6 22 -82 37
-104 38 -119 5z"/>
<path d="M1294 2275 c-203 -45 -384 -145 -526 -291 -63 -64 -124 -144 -112
-144 4 0 54 46 110 103 137 138 151 148 289 216 110 54 169 75 250 88 121 20
64 -27 -65 -53 -40 -8 -80 -24 -165 -67 -224 -113 -371 -273 -470 -511 -54
-131 -79 -294 -55 -351 7 -15 9 -9 9 26 3 166 79 382 185 526 136 185 315 304
546 362 101 26 105 27 108 56 3 26 -18 57 -37 54 -3 -1 -33 -7 -67 -14z"/>
<path d="M1970 2129 c-16 -29 -8 -43 47 -80 176 -119 316 -304 378 -499 20
-64 35 -85 35 -49 0 63 -70 219 -145 324 -44 62 -168 190 -202 209 -10 5 -20
12 -23 15 -3 4 -17 14 -32 24 -29 18 -38 47 -15 47 21 0 125 -76 200 -146 37
-35 72 -64 78 -64 23 0 -81 107 -167 173 -95 72 -134 84 -154 46z"/>
<path d="M2311 2046 c-7 -8 -11 -34 -9 -58 l3 -43 14 43 c8 23 20 42 28 42 18
0 19 -176 1 -182 -8 -3 6 -42 40 -114 28 -60 63 -149 79 -199 25 -82 27 -104
28 -255 0 -127 -4 -182 -18 -240 -24 -98 -71 -217 -109 -277 -17 -26 -44 -73
-60 -103 l-28 -55 31 35 c86 97 158 249 196 415 13 60 18 117 17 225 -2 178
-28 294 -104 446 l-50 101 10 96 c8 69 8 102 0 117 -12 23 -52 27 -69 6z"/>
<path d="M577 2004 c-4 -4 -7 -73 -7 -152 0 -132 -2 -151 -25 -209 -52 -130
-69 -218 -69 -368 -1 -101 4 -162 17 -220 38 -166 110 -318 196 -415 l31 -35
-30 58 c-16 31 -40 74 -54 95 -143 227 -178 589 -81 837 13 33 27 74 30 90 4
17 9 38 12 49 3 11 1 16 -5 12 -13 -8 -4 214 8 228 15 16 30 -5 30 -42 0 -20
5 -44 10 -52 7 -11 10 6 8 55 -3 70 -3 70 -33 73 -17 2 -34 0 -38 -4z"/>
<path d="M1281 1906 c-23 -27 -90 -320 -76 -334 8 -9 24 42 50 157 26 119 51
176 66 150 4 -9 0 -44 -11 -84 -20 -75 -45 -205 -56 -295 -26 -201 11 -529 67
-598 16 -20 20 -22 15 -7 -4 11 -16 52 -26 91 -59 229 -50 519 25 801 30 112
28 98 9 117 -19 20 -48 21 -63 2z"/>
<path d="M17 1863 c-13 -12 -7 -24 11 -22 35 3 42 -2 63 -51 12 -27 25 -50 30
-50 10 0 -16 76 -37 107 -14 22 -53 31 -67 16z"/>
<path d="M2922 1858 c-16 -20 -54 -120 -42 -113 6 3 17 21 26 38 28 54 44 68
66 56 17 -9 19 -8 16 8 -4 22 -50 30 -66 11z"/>
<path d="M342 1804 c-31 -32 -87 -122 -80 -129 2 -3 26 25 52 61 45 63 68 75
74 41 3 -13 -79 -150 -99 -167 -3 -3 -14 -21 -24 -40 -10 -19 -24 -39 -31 -43
-30 -18 -6 -202 46 -352 32 -93 95 -217 156 -308 58 -84 199 -235 211 -224 3
4 -28 42 -69 85 -177 186 -310 465 -334 702 l-6 68 92 136 c50 75 90 143 88
152 -2 9 -13 23 -25 31 -21 14 -25 13 -51 -13z"/>
<path d="M2608 1823 c-10 -3 -21 -15 -24 -28 -5 -19 13 -53 86 -161 l92 -136
-6 -68 c-24 -240 -156 -516 -340 -707 -87 -92 -87 -113 0 -31 106 100 224 278
283 429 69 173 101 372 66 408 -25 26 -155 233 -155 247 0 26 24 27 44 2 21
-26 55 -71 68 -91 4 -6 9 -9 13 -6 8 9 -71 126 -92 137 -10 4 -26 7 -35 5z"/>
<path d="M24 1773 c8 -21 38 -94 69 -163 38 -87 57 -146 62 -190 17 -152 117
-451 142 -427 2 3 -6 29 -18 58 -49 122 -87 265 -105 394 -7 54 -32 130 -34
105 0 -8 -8 5 -16 30 -20 56 -101 230 -108 230 -3 0 1 -17 8 -37z"/>
<path d="M2926 1700 c-26 -61 -49 -124 -52 -140 -4 -16 -11 -28 -16 -27 -9 2
-39 -69 -31 -76 7 -8 -47 -243 -73 -312 -34 -93 -46 -134 -42 -147 6 -16 64
127 93 226 13 47 30 125 36 173 10 66 26 118 67 213 67 153 84 200 73 200 -4
0 -29 -50 -55 -110z"/>
<path d="M1036 1714 c-29 -28 -31 -24 101 -196 l44 -58 4 -157 c6 -275 66
-495 181 -669 58 -87 52 -49 -11 70 -80 153 -117 275 -139 462 -3 23 -6 102
-7 175 -1 74 -5 145 -10 159 l-7 25 -2 -25 c-1 -23 -2 -24 -13 -6 -7 11 -38
55 -70 98 -53 71 -66 108 -39 108 5 0 31 -25 57 -55 54 -63 72 -66 30 -5 -61
89 -88 105 -119 74z"/>
<path d="M1473 1629 c-7 -7 -13 -26 -13 -41 0 -30 8 -34 84 -41 33 -3 36 -2
20 10 -10 7 -24 14 -31 14 -7 1 -19 2 -25 3 -7 0 -14 10 -16 20 -4 18 1 19 85
13 49 -3 107 -13 129 -22 142 -60 232 -120 298 -196 19 -23 45 -48 57 -57 l22
-15 -19 32 c-10 18 -52 64 -93 102 -113 106 -259 171 -421 185 -47 4 -69 2
-77 -7z"/>
<path d="M1655 1530 c3 -6 -1 -13 -9 -16 -9 -3 -24 -20 -35 -38 -11 -18 -28
-41 -38 -53 -10 -12 -26 -31 -36 -43 -18 -21 -38 -23 -44 -4 -2 5 15 38 38 72
22 35 39 68 37 73 -4 12 -108 -130 -108 -147 0 -18 37 -46 57 -42 9 2 46 44
81 93 35 50 70 91 78 93 8 2 39 -8 69 -22 211 -96 348 -294 362 -521 7 -116
-14 -215 -65 -317 -30 -59 -35 -74 -20 -65 20 12 78 124 78 149 0 8 5 19 11
25 17 17 24 223 10 293 -38 194 -176 369 -354 450 -65 29 -124 40 -112 20z"/>
<path d="M2296 1494 c-9 -8 -16 -19 -16 -24 0 -19 39 -49 85 -66 28 -9 56 -24
63 -33 26 -31 11 -226 -28 -371 l-11 -42 -34 36 c-18 20 -40 36 -48 36 -19 0
-47 -27 -47 -45 0 -14 51 -79 79 -101 29 -22 -79 -186 -201 -304 -83 -80 -71
-96 15 -20 94 85 217 262 217 313 0 8 -6 17 -13 20 -23 9 -71 87 -60 98 13 13
75 -23 84 -48 9 -26 56 79 69 155 23 134 10 326 -21 307 -9 -6 -106 41 -114
55 -8 14 17 24 50 22 29 -2 29 -2 11 13 -25 19 -60 19 -80 -1z"/>
<path d="M2113 1398 c-27 -36 -21 -66 7 -33 23 28 43 18 37 -17 -10 -61 -20
-93 -30 -100 -7 -4 0 -42 18 -105 46 -161 36 -344 -26 -482 -40 -88 -49 -111
-44 -111 14 0 68 103 92 175 24 71 27 95 27 215 0 121 -3 143 -27 213 l-27 79
25 69 c30 83 29 74 9 93 -19 19 -48 21 -61 4z"/>
<path d="M611 1323 c-38 -45 -33 -55 10 -19 59 50 63 -4 4 -68 -11 -12 -26
-34 -34 -49 -8 -14 -18 -24 -22 -21 -5 3 -11 -7 -15 -21 -20 -82 76 -333 174
-455 89 -110 166 -180 199 -180 4 0 -25 31 -65 70 -149 145 -243 311 -281 498
l-11 52 65 82 c68 86 75 106 49 132 -24 24 -40 20 -73 -21z"/>
<path d="M938 1348 c-19 -15 -81 -118 -70 -118 14 0 30 16 45 46 21 41 45 60
58 47 8 -8 7 -19 -4 -40 -79 -147 -99 -219 -96 -357 1 -108 30 -229 62 -260
26 -26 26 -19 2 42 -71 174 -56 366 41 539 34 61 35 65 20 89 -18 27 -34 30
-58 12z"/>
<path d="M786 1255 c-23 -24 -20 -43 14 -76 l29 -30 -16 -77 c-31 -152 2 -357
77 -476 37 -57 50 -56 21 3 -39 75 -63 146 -77 226 -18 102 -18 151 1 250 13
67 13 81 2 90 -20 14 -39 54 -32 65 3 6 15 10 26 10 27 0 19 24 -8 28 -11 2
-28 -4 -37 -13z"/>
<path d="M106 1054 c-35 -34 -17 -55 137 -154 129 -82 158 -106 221 -180 98
-115 215 -215 339 -289 62 -37 42 -5 -25 40 -117 79 -197 151 -299 265 -55 63
-105 112 -110 108 -6 -3 -20 3 -32 13 -27 24 -144 103 -153 103 -17 0 -64 44
-64 61 0 30 29 23 103 -25 45 -30 31 1 -16 32 -58 40 -81 46 -101 26z"/>
<path d="M2835 1054 c-40 -21 -97 -65 -92 -71 3 -2 27 10 55 26 48 30 72 37
85 25 14 -14 -16 -44 -90 -90 -43 -26 -95 -61 -117 -76 -21 -15 -42 -25 -46
-23 -5 3 -35 -25 -67 -61 -124 -143 -227 -238 -318 -297 -59 -38 -90 -65 -84
-71 8 -9 164 98 238 162 35 31 97 95 137 142 63 74 92 98 221 180 153 99 172
120 138 154 -20 20 -23 20 -60 0z"/>
<path d="M1370 950 c-30 -30 -25 -43 10 -25 16 8 31 15 35 15 12 0 4 -34 -15
-57 -11 -14 -20 -32 -20 -40 0 -9 -6 -13 -15 -9 -10 4 -15 -1 -15 -15 0 -64
100 -211 232 -341 93 -91 114 -108 141 -108 25 0 29 -3 17 -11 -11 -7 -6 -8
20 -3 48 9 183 54 194 64 13 13 -34 4 -74 -13 -79 -33 -81 -27 -10 24 88 64
107 92 80 121 -51 56 -47 127 5 78 31 -29 43 -21 20 14 -23 34 -52 42 -76 20
-26 -24 -24 -36 18 -90 l36 -48 -53 -48 c-29 -26 -76 -59 -105 -74 l-53 -28
-58 44 c-118 91 -211 199 -279 323 -34 61 -35 68 -21 83 35 35 66 82 66 100 0
44 -46 58 -80 24z"/>
<path d="M1002 713 c-7 -2 -17 -13 -22 -24 -10 -17 -9 -18 15 -7 37 17 51 -1
31 -40 -24 -46 -19 -61 9 -27 30 37 33 80 6 95 -11 5 -21 10 -23 9 -2 0 -9 -3
-16 -6z"/>
<path d="M994 575 c8 -36 108 -135 167 -166 65 -32 38 -34 -39 -1 -39 16 -75
26 -82 22 -12 -7 59 -35 175 -68 174 -50 288 -66 359 -50 72 16 57 23 -41 19
-53 -1 -123 2 -157 9 -127 24 -283 122 -359 224 -29 40 -29 40 -23 11z"/>
<path d="M1352 568 c-16 -16 -15 -53 3 -68 9 -8 28 -10 55 -5 47 8 44 25 -6
25 -33 0 -48 20 -24 35 6 3 10 10 10 16 0 13 -24 11 -38 -3z"/>
<path d="M1438 534 c18 -34 181 -184 199 -184 18 0 -119 138 -181 182 -27 20
-28 20 -18 2z"/>
<path d="M652 388 c-19 -19 -14 -46 13 -64 22 -14 47 -16 190 -10 157 6 169 5
253 -19 253 -74 531 -74 784 0 82 24 96 25 254 20 139 -4 171 -2 191 10 25 17
30 44 11 63 -15 15 -148 16 -148 2 0 -5 3 -9 8 -9 4 1 31 1 60 0 38 -1 54 -5
59 -17 3 -9 0 -19 -7 -24 -6 -4 -89 -7 -184 -5 -123 1 -187 -2 -226 -13 -159
-42 -226 -53 -345 -58 -151 -7 -276 6 -414 42 -84 23 -118 26 -279 28 -124 2
-186 6 -194 14 -20 20 4 32 65 35 31 1 57 5 57 10 0 12 -135 8 -148 -5z"/>
</g>
</svg>
